<svg xmlns="http://www.w3.org/2000/svg" width="1200" height="360" viewBox="0 0 1200 360" fill="none" role="img" aria-labelledby="title desc">
  <title id="title">woochichichi — Ideas into useful tools.</title>
  <desc id="desc">A dark navy banner with mint typography and three connected tiles representing AI, documents, and apps.</desc>
  <defs>
    <pattern id="grid" width="32" height="32" patternUnits="userSpaceOnUse">
      <circle cx="1" cy="1" r="1" fill="#2C3D47"/>
    </pattern>
  </defs>
  <rect width="1200" height="360" rx="20" fill="#101C24"/>
  <rect x="716" y="24" width="460" height="312" rx="12" fill="url(#grid)"/>
  <path d="M64 63H86" stroke="#B8F2D3" stroke-width="3"/>
  <text x="100" y="69" fill="#D5E2E7" font-family="Arial, Helvetica, sans-serif" font-size="18" letter-spacing="3">WOOCHICHICHI</text>
  <text x="60" y="167" fill="#F3F5ED" font-family="Arial, Helvetica, sans-serif" font-size="76" font-weight="700" letter-spacing="-3">Ideas into</text>
  <text x="60" y="246" fill="#B8F2D3" font-family="Arial, Helvetica, sans-serif" font-size="76" font-weight="700" letter-spacing="-3">useful tools.</text>
  <text x="64" y="307" fill="#A6BAC5" font-family="Arial, Helvetica, sans-serif" font-size="16" letter-spacing="2">AI / DOCUMENT TOOLS / ANDROID</text>
  <path d="M861 126H1016V188M1016 252V287H870" stroke="#54706C" stroke-width="2" stroke-dasharray="5 7"/>
  <circle cx="1016" cy="126" r="5" fill="#B8F2D3"/>
  <circle cx="936" cy="287" r="5" fill="#B8F2D3"/>
  <rect x="742" y="51" width="153" height="145" rx="15" fill="#182B34" stroke="#38534F"/>
  <rect x="760" y="69" width="117" height="83" rx="8" fill="#233E43"/>
  <path d="M795 104L780 113L795 122M842 104L857 113L842 122M826 96L811 130" stroke="#B8F2D3" stroke-width="3" stroke-linecap="round" stroke-linejoin="round"/>
  <text x="760" y="177" fill="#D8E7E7" font-family="Arial, Helvetica, sans-serif" font-size="14" letter-spacing="2">AI</text>
  <circle cx="871" cy="172" r="4" fill="#B8F2D3"/>
  <rect x="939" y="164" width="165" height="145" rx="15" fill="#20332E" stroke="#496354"/>
  <path d="M965 191H1007M965 202H990" stroke="#B8F2D3" stroke-width="3" stroke-linecap="round"/>
  <rect x="965" y="219" width="111" height="48" rx="5" fill="#2C453A"/>
  <path d="M1002 219V267M1039 219V267M965 243H1076" stroke="#526C5A" stroke-width="1.5"/>
  <text x="963" y="291" fill="#D8E7E0" font-family="Arial, Helvetica, sans-serif" font-size="14" letter-spacing="2">DOCS</text>
  <circle cx="1080" cy="286" r="4" fill="#B8F2D3"/>
  <rect x="756" y="224" width="114" height="97" rx="14" fill="#EAC59C"/>
  <rect x="778" y="242" width="18" height="18" rx="4" fill="#263B38"/>
  <rect x="802" y="242" width="18" height="18" rx="4" fill="#263B38" fill-opacity=".6"/>
  <rect x="826" y="242" width="18" height="18" rx="4" fill="#263B38" fill-opacity=".3"/>
  <text x="778" y="299" fill="#263B38" font-family="Arial, Helvetica, sans-serif" font-size="14" font-weight="700" letter-spacing="2">APPS</text>
</svg>
